<svg xmlns="http://www.w3.org/2000/svg" viewBox="0 0 64 64" width="64" height="64">
  <!-- Futuristic gradient glass backdrop -->
  <defs>
    <linearGradient id="g1" x1="0%" y1="0%" x2="100%" y2="100%">
      <stop offset="0%" stop-color="#6366f1"/>
      <stop offset="45%" stop-color="#8b5cf6"/>
      <stop offset="75%" stop-color="#ec4899"/>
      <stop offset="100%" stop-color="#38bdf8"/>
    </linearGradient>
    <radialGradient id="glow" cx="50%" cy="50%" r="60%">
      <stop offset="0%" stop-color="#ffffff" stop-opacity="0.55"/>
      <stop offset="40%" stop-color="#ffffff" stop-opacity="0.12"/>
      <stop offset="100%" stop-color="#ffffff" stop-opacity="0"/>
    </radialGradient>
    <filter id="innerShadow" x="0" y="0" width="100%" height="100%">
      <feOffset dx="0" dy="1"/>
      <feGaussianBlur stdDeviation="2" result="blur"/>
      <feComposite in="SourceGraphic" in2="blur" operator="arithmetic" k2="1" k3="-1"/>
      <feColorMatrix type="matrix" values="0 0 0 0 0 0 0 0 0 0 0 0 0 0 0 0 0 0 0.45 0"/>
      <feBlend mode="normal" in2="SourceGraphic"/>
    </filter>
  </defs>
  <rect x="2" y="2" width="60" height="60" rx="16" fill="#0f172a"/>
  <rect x="2" y="2" width="60" height="60" rx="16" fill="url(#glow)"/>
  <rect x="2" y="2" width="60" height="60" rx="16" fill="none" stroke="url(#g1)" stroke-width="2" opacity="0.9"/>
  <!-- Stylized Z + vault arc (combined shape) -->
  <path fill="url(#g1)" d="M17 18h30c1.1 0 2 .9 2 2 0 .5-.2 1-.6 1.4L29.8 41H47c1.1 0 2 .9 2 2s-.9 2-2 2H17c-1.1 0-2-.9-2-2 0-.5.2-1 .6-1.4L34.2 24H17c-1.1 0-2-.9-2-2s.9-2 2-2z" filter="url(#innerShadow)"/>
  <!-- Subtle top highlight -->
  <path d="M6 18a14 14 0 0114-14h24a14 14 0 0114 14v0.5C46 14 18 14 6 18z" fill="#ffffff" opacity="0.07"/>
</svg>
